<svg id="visual" viewBox="0 0 900 600" width="900" height="600" xmlns="http://www.w3.org/2000/svg" xmlns:xlink="http://www.w3.org/1999/xlink" version="1.1"><rect x="0" y="0" width="900" height="600" fill="transparent"></rect><defs><linearGradient id="grad1_0" x1="33.3%" y1="0%" x2="100%" y2="100%"><stop offset="20%" stop-color="#ffffff" stop-opacity="1"></stop><stop offset="80%" stop-color="#ffffff" stop-opacity="1"></stop></linearGradient></defs><defs><linearGradient id="grad2_0" x1="0%" y1="0%" x2="66.7%" y2="100%"><stop offset="20%" stop-color="#ffffff" stop-opacity="1"></stop><stop offset="80%" stop-color="#ffffff" stop-opacity="1"></stop></linearGradient></defs><g transform="translate(900, 0)"><path d="M0 297.5C-10.9 248.9 -21.9 200.3 -38 191.3C-54.2 182.2 -75.6 212.6 -88 212.5C-100.5 212.4 -104 181.7 -112.8 168.8C-121.6 155.8 -135.7 160.6 -167.6 167.6C-199.5 174.6 -249.2 183.9 -247.3 165.3C-245.4 146.6 -191.9 100 -190.3 78.8C-188.8 57.6 -239.3 61.8 -265.8 52.9C-292.3 44 -294.9 22 -297.5 0L0 0Z" fill=" rgb(0, 78, 47)"></path></g><g transform="translate(0, 600)"><path d="M0 -297.5C18.6 -285.4 37.2 -273.4 51.7 -259.9C66.2 -246.4 76.5 -231.3 96.1 -231.9C115.6 -232.4 144.5 -248.6 165.3 -247.3C186 -246.1 198.7 -227.5 209.3 -209.3C219.9 -191.1 228.4 -173.4 226.2 -151.1C223.9 -128.8 210.9 -101.8 198.6 -82.3C186.3 -62.7 174.7 -50.5 191.3 -38C207.8 -25.6 252.6 -12.8 297.5 0L0 0Z" fill="rgb(0, 78, 47)"></path></g></svg>